<svg xmlns="http://www.w3.org/2000/svg" xmlns:sketch="http://www.bohemiancoding.com/sketch/ns" width="300" height="300" viewBox="0 0 300 300"><style>.style0{fill: none;fill-rule: evenodd;}.style1{fill: #099AD7;}.style2{fill: #FFFFFF;}</style>
    <title>2014 Salesforce Logo</title>
    <g sketch:type="MSArtboardGroup" class="style0"><path d="M126.795 76.2c8.778-9.1 21.005-14.8 34.505-14.8 17.973 0 33.6 10 42 24.9 7.251-3.2 15.3-5 23.7-5 32.432 0 58.7 26.5 58.7 59.2.001 32.6-26.3 59.1-58.7 59.1-3.93 0-7.8-.4-11.5-1.1-7.381 13.1-21.4 22-37.5 22-6.697 0-13.1-1.6-18.7-4.4-7.482 17.6-24.8 29.9-45.1 29.9-21.049 0-39-13.4-45.9-32.1-3.012.7-6.1 1-9.3 1-25.125 0-45.5-20.5-45.5-45.9.038-17 9.2-31.8 22.8-39.8-2.843-6.4-4.4-13.5-4.4-20.9.004-29.2 23.7-52.8 52.9-52.8 17.105 0 32.3 8.1 42 20.7" sketch:type="MSShapeGroup" class="style1"/><g sketch:type="MSLayerGroup" class="style2"><path d="M53 154.3c-.2.4 0 .5.1.6l1.5.9c2.8 1.5 5.4 1.9 8.2 1.9 5.5 0 9-3 9-7.7v-.1c0-4.5-3.9-6.1-7.6-7.2l-.4-.2c-2.8-.9-5.2-1.6-5.2-3.5v-.1c0-1.5 1.4-2.7 3.6-2.7 2.4 0 5.2.8 7 1.8 0 0 .6.4.8-.1l1.1-3.1c.1-.3-.1-.5-.2-.6-2.1-1.3-5-2.2-8-2.2h-.6c-5.1 0-8.7 3.1-8.7 7.5v.1c0 4.7 4 6.2 7.6 7.3l.6.2c2.7.8 5 1.5 5 3.4v.1c0 1.7-1.5 3-3.9 3-.9 0-3.9 0-7.2-2.1-.4-.2-.6-.4-.9-.6-.2-.1-.6-.2-.7.3l-1.1 3.1M134.7 154.3c-.2.4 0 .5.1.6.5.3 1 .6 1.6.9 2.7 1.5 5.4 1.9 8.1 1.9 5.6 0 9-3 9-7.7v-.1c0-4.5-3.9-6.1-7.5-7.2l-.5-.2c-2.8-.9-5.2-1.6-5.2-3.5v-.1c0-1.5 1.4-2.7 3.6-2.7 2.4 0 5.2.8 7.1 1.8 0 0 .5.4.7-.1l1.2-3.1c.1-.3-.1-.5-.3-.6-2.1-1.3-5-2.2-8-2.2h-.6c-5.1 0-8.7 3.1-8.7 7.5v.1c0 4.7 4 6.2 7.7 7.3l.6.2c2.6.8 5 1.5 5 3.4v.1c0 1.7-1.5 3-4 3-.9 0-3.9 0-7.2-2.1l-.9-.6c-.1 0-.5-.2-.7.3l-1.1 3.1M195.1 139.9c-.4-1.6-1.1-2.9-2.1-4.1-.9-1.1-2.1-2-3.6-2.7-1.4-.7-3.1-1-5-1-1.8 0-3.5.3-4.9 1-1.5.7-2.7 1.6-3.6 2.7-1 1.2-1.7 2.5-2.1 4.1-.5 1.5-.7 3.2-.7 5 0 1.8.2 3.5.7 5 .4 1.5 1.1 2.9 2.1 4 .9 1.2 2.1 2.1 3.6 2.7 1.4.7 3.1 1 4.9 1 1.9 0 3.6-.3 5-1 1.5-.6 2.7-1.5 3.6-2.7 1-1.1 1.7-2.5 2.1-4 .5-1.5.7-3.2.7-5 0-1.8-.2-3.5-.7-5m-4.6 5c0 2.7-.5 4.8-1.5 6.3s-2.5 2.2-4.6 2.2c-2 0-3.5-.7-4.5-2.2-.9-1.5-1.4-3.6-1.4-6.3 0-2.7.5-4.8 1.4-6.3 1-1.5 2.5-2.2 4.5-2.2 2.1 0 3.6.7 4.6 2.2 1 1.5 1.5 3.6 1.5 6.3M233.4 152.7c-.1-.4-.6-.3-.6-.3-.7.3-1.4.5-2.1.7-.8.1-1.7.1-2.6.1-2.3 0-4.1-.6-5.3-2-1.3-1.3-2-3.4-2-6.3 0-2.7.6-4.7 1.8-6.2 1.1-1.5 2.8-2.2 5.1-2.2 1.9 0 3.4.2 5 .7 0 0 .3.1.5-.4.4-1.1.7-1.9 1.1-3.1.2-.4-.1-.6-.3-.6-.6-.2-2-.6-3.1-.8-1-.1-2.1-.2-3.5-.2-1.9 0-3.7.3-5.2 1-1.4.6-2.7 1.6-3.7 2.7s-1.8 2.5-2.3 4.1c-.5 1.5-.7 3.2-.7 5 0 3.8 1 7 3.1 9.2 2 2.3 5.1 3.5 9.2 3.5 2.4 0 4.8-.5 6.6-1.2 0 0 .3-.1.2-.5l-1.2-3.2" sketch:type="MSShapeGroup"/><path d="M257.3 139c-.4-1.5-1.4-3-2.1-3.7-1-1.1-2-1.9-3-2.3-1.2-.5-2.8-.9-4.5-.9-1.9 0-3.7.3-5.2 1-1.4.7-2.7 1.6-3.6 2.8-1 1.2-1.7 2.5-2.2 4.1-.4 1.5-.6 3.2-.6 5 0 1.8.2 3.5.7 5.1.4 1.5 1.2 2.8 2.3 4 1 1.1 2.3 2 3.9 2.6 1.6.6 3.5.9 5.7.9 4.6 0 7-1 8-1.6.2-.1.3-.2.1-.7l-1-2.9c-.2-.4-.6-.3-.6-.3-1.1.5-2.7 1.2-6.5 1.2-2.4 0-4.2-.7-5.4-1.9-1.1-1.1-1.7-2.8-1.8-5.2h15.8s.4 0 .4-.4c0-.2.6-3.2-.4-6.8zm-15.7 3.3c.2-1.5.6-2.7 1.2-3.7 1-1.5 2.5-2.3 4.6-2.3 2 0 3.4.8 4.4 2.3.6 1 .9 2.3 1 3.7h-11.2zM130.9 139c-.4-1.5-1.4-3-2-3.7-1-1.1-2-1.9-3-2.3-1.3-.5-2.8-.9-4.5-.9-2 0-3.8.3-5.2 1-1.5.7-2.7 1.6-3.7 2.8-.9 1.2-1.6 2.5-2.1 4.1-.5 1.5-.7 3.2-.7 5 0 1.8.3 3.5.7 5.1.5 1.5 1.3 2.8 2.3 4 1.1 1.1 2.4 2 4 2.6 1.6.6 3.5.9 5.7.9 4.6 0 7-1 8-1.6.1-.1.3-.2.1-.7l-1-2.9c-.2-.4-.6-.3-.6-.3-1.2.5-2.8 1.2-6.5 1.2-2.5 0-4.3-.7-5.4-1.9-1.2-1.1-1.7-2.8-1.8-5.2h15.7s.4 0 .5-.4c0-.2.5-3.2-.5-6.8zm-15.7 3.3c.3-1.5.7-2.7 1.3-3.7 1-1.5 2.4-2.3 4.5-2.3s3.5.8 4.4 2.3c.7 1 1 2.3 1.1 3.7h-11.3zM87.4 141.5h-2.5c-1.3 0-2.6.1-3.8.5-1.3.3-2.4.8-3.3 1.5-1 .7-1.8 1.6-2.3 2.6-.6 1-.9 2.3-.9 3.6 0 1.4.3 2.6.8 3.6.4 1 1.1 1.9 2 2.5.9.6 2 1.1 3.2 1.4 1.3.3 2.7.4 4.2.4 1.6 0 3.2-.1 4.8-.4 1.5-.2 3.4-.6 4-.7.5-.2 1.1-.3 1.1-.3.4-.1.3-.5.3-.5v-14.5c0-3.1-.8-5.5-2.5-6.9-1.6-1.5-4.1-2.2-7.2-2.2-1.2 0-3.1.1-4.3.4 0 0-3.4.6-4.8 1.8 0 0-.3.1-.2.6l1.2 3c.1.4.5.2.5.2s.1 0 .2-.1c3.1-1.6 6.9-1.6 6.9-1.6 1.7 0 3 .4 3.9 1 .9.7 1.3 1.7 1.3 3.8v.7l-2.6-.4zm-6.3 11.1c-.6-.5-.7-.6-.9-.9-.3-.5-.5-1.2-.5-2.1 0-1.3.5-2.3 1.5-3-.1 0 1.3-1.2 4.5-1.2 2.3.1 4.3.4 4.3.4v7.2s-2 .4-4.2.5c-3.3.2-4.7-.9-4.7-.9zM214.6 133.4c.2-.3-.1-.5-.2-.6-.3-.1-1.6-.3-2.6-.4-2-.1-3.1.2-4.1.7-1 .4-2.1 1.1-2.7 1.9v-1.9c0-.3-.2-.5-.4-.5h-4.1c-.2 0-.4.2-.4.5v23.5c0 .3.2.5.5.5h4.1c.3 0 .5-.2.5-.5v-11.7c0-1.6.2-3.2.5-4.2.3-.9.8-1.7 1.4-2.3.6-.5 1.2-.9 1.9-1.2.8-.2 1.6-.3 2.1-.3.9 0 1.8.3 1.8.3.3 0 .5-.2.6-.5.2-.7 1-2.9 1.1-3.3M175.7 122.5c-.5-.1-.9-.2-1.5-.4-.6-.1-1.3-.1-2.2-.1-2.8 0-5.1.8-6.6 2.4-1.6 1.6-2.7 4-3.2 7.1l-.2 1.1h-3.6s-.4 0-.5.5l-.6 3.2c0 .3.1.5.5.5h3.5l-3.5 19.8c-.3 1.6-.6 2.9-1 3.9-.3 1-.7 1.7-1.1 2.2-.4.5-.8.9-1.4 1.1-.6.2-1.2.3-1.9.3l-1.3-.1-.8-.3s-.4-.2-.6.2c-.1.4-1 2.9-1.1 3.2-.2.4 0 .6.2.7.5.1.8.2 1.4.4.9.2 1.7.2 2.4.2 1.4 0 2.7-.2 3.8-.6 1.1-.4 2.1-1.1 2.9-2 1-1 1.5-2.1 2.1-3.5.5-1.5 1-3.3 1.4-5.3l3.5-20.2h5.2s.5.1.6-.4l.5-3.3c.1-.3-.1-.5-.5-.5h-5c0-.1.2-1.9.8-3.6.3-.7.7-1.3 1.1-1.6.4-.4.9-.7 1.3-.9.5-.1 1.1-.2 1.7-.2.5 0 1 0 1.3.1.5.1.7.2.8.2.6.2.6 0 .7-.2l1.2-3.3c.2-.4-.2-.5-.3-.6M105.3 156.6c0 .3-.2.5-.5.5h-4.2c-.2 0-.4-.2-.4-.5v-33.6c0-.3.2-.5.4-.5h4.2c.3 0 .5.2.5.5v33.6" sketch:type="MSShapeGroup"/></g></g>
</svg>